<svg version="1.2" xmlns="http://www.w3.org/2000/svg" viewBox="0 0 1395 868" width="1395" height="868"><style>.a{fill:#fff}</style><path class="a" d="m495.2 651.6c-135.9 0-181.1-29.6-181.1-74.9 0-44.7 44.1-72.6 181.1-72.6 138.1 0 181.1 29 181.1 72.6 0 44.1-44.2 74.9-181.1 74.9zm0-409.3c118.4 0 145.1 18.5 145.1 51 0 33.1-25 51.7-145.1 51.7-119.6 0-144.6-18.6-144.6-51.7 0-32.5 26.1-51 144.6-51zm312.8 167.2c65-33.7 97.5-85.4 97.5-154.5 0-139.9-111.4-205.5-410.3-205.5-299 0-410.4 65-410.4 205.5 0 70.3 32.5 122 98.1 154.5-131.8 35.4-182.3 103.9-182.3 206.7 0 164.3 110.9 251.4 494.6 251.4 383.1 0 495.1-88.3 495.1-251.4 0-102.8-51.7-171.3-182.3-206.7z"/><path class="a" d="m1038.1 183.1v-124.3h84.3v-57.7h-239.7v57.7h84.4v124.3zm285.2-62.4v62.2h71.1v-182.1h-71.1v62.2h-106.6v-62.2h-71v182.1h71v-62.2z"/></svg>